<mxfile host="app.diagrams.net" modified="2021-04-25T00:11:28.442Z" agent="5.0 (Windows)" etag="3hsLzjBcuVMLbiV9RD24" version="14.6.6" type="github">
  <diagram id="g536wSOpLBMmxYYWp5ki" name="Page-1">
    <mxGraphModel dx="2062" dy="1152" grid="1" gridSize="10" guides="1" tooltips="1" connect="1" arrows="1" fold="1" page="1" pageScale="1" pageWidth="827" pageHeight="1169" math="0" shadow="0">
      <root>
        <mxCell id="0" />
        <mxCell id="1" parent="0" />
        <mxCell id="oZSlwUcGQeWg7HEZ2WSq-1" value="&lt;div&gt;Dell 7420&lt;/div&gt;&lt;div&gt;OBS&lt;/div&gt;&lt;div&gt;Teams&lt;br&gt;&lt;/div&gt;" style="rounded=0;whiteSpace=wrap;html=1;" parent="1" vertex="1">
          <mxGeometry x="120" y="370" width="120" height="60" as="geometry" />
        </mxCell>
        <mxCell id="oZSlwUcGQeWg7HEZ2WSq-3" value="&lt;div&gt;Dell XPS 9550&lt;/div&gt;&lt;div&gt;PowerPoint&lt;/div&gt;&lt;div&gt;Teams&lt;br&gt;&lt;/div&gt;" style="rounded=0;whiteSpace=wrap;html=1;" parent="1" vertex="1">
          <mxGeometry x="400" y="370" width="120" height="60" as="geometry" />
        </mxCell>
        <mxCell id="oZSlwUcGQeWg7HEZ2WSq-4" value="Elgato HDMI Capture" style="ellipse;whiteSpace=wrap;html=1;aspect=fixed;" parent="1" vertex="1">
          <mxGeometry x="420" y="210" width="80" height="80" as="geometry" />
        </mxCell>
        <mxCell id="oZSlwUcGQeWg7HEZ2WSq-5" value="External display" style="rounded=1;whiteSpace=wrap;html=1;" parent="1" vertex="1">
          <mxGeometry x="360" y="20" width="180" height="100" as="geometry" />
        </mxCell>
        <mxCell id="oZSlwUcGQeWg7HEZ2WSq-6" value="" style="endArrow=classic;html=1;entryX=0.5;entryY=1;entryDx=0;entryDy=0;" parent="1" source="oZSlwUcGQeWg7HEZ2WSq-3" target="oZSlwUcGQeWg7HEZ2WSq-4" edge="1">
          <mxGeometry width="50" height="50" relative="1" as="geometry">
            <mxPoint x="449.5" y="330" as="sourcePoint" />
            <mxPoint x="449.5" y="290" as="targetPoint" />
          </mxGeometry>
        </mxCell>
        <mxCell id="oZSlwUcGQeWg7HEZ2WSq-9" value="" style="endArrow=classic;html=1;entryX=0.544;entryY=1.02;entryDx=0;entryDy=0;entryPerimeter=0;exitX=0.5;exitY=0;exitDx=0;exitDy=0;" parent="1" source="oZSlwUcGQeWg7HEZ2WSq-4" target="oZSlwUcGQeWg7HEZ2WSq-5" edge="1">
          <mxGeometry width="50" height="50" relative="1" as="geometry">
            <mxPoint x="458" y="190" as="sourcePoint" />
            <mxPoint x="510" y="160" as="targetPoint" />
          </mxGeometry>
        </mxCell>
        <mxCell id="oZSlwUcGQeWg7HEZ2WSq-10" value="" style="endArrow=classic;html=1;entryX=0;entryY=0.5;entryDx=0;entryDy=0;exitX=0.692;exitY=-0.017;exitDx=0;exitDy=0;exitPerimeter=0;" parent="1" source="oZSlwUcGQeWg7HEZ2WSq-1" target="oZSlwUcGQeWg7HEZ2WSq-4" edge="1">
          <mxGeometry relative="1" as="geometry">
            <mxPoint x="300" y="249.5" as="sourcePoint" />
            <mxPoint x="400" y="249.5" as="targetPoint" />
            <Array as="points">
              <mxPoint x="203" y="250" />
            </Array>
          </mxGeometry>
        </mxCell>
        <mxCell id="oZSlwUcGQeWg7HEZ2WSq-12" value="Rode mic RX" style="ellipse;whiteSpace=wrap;html=1;aspect=fixed;" parent="1" vertex="1">
          <mxGeometry x="20" y="470" width="80" height="80" as="geometry" />
        </mxCell>
        <mxCell id="oZSlwUcGQeWg7HEZ2WSq-13" value="WebCam" style="ellipse;whiteSpace=wrap;html=1;aspect=fixed;" parent="1" vertex="1">
          <mxGeometry x="120" y="470" width="80" height="80" as="geometry" />
        </mxCell>
        <mxCell id="oZSlwUcGQeWg7HEZ2WSq-14" value="AC-404 mic" style="ellipse;whiteSpace=wrap;html=1;aspect=fixed;" parent="1" vertex="1">
          <mxGeometry x="220" y="470" width="80" height="80" as="geometry" />
        </mxCell>
        <mxCell id="oZSlwUcGQeWg7HEZ2WSq-15" value="Headset (monitor)" style="ellipse;whiteSpace=wrap;html=1;aspect=fixed;" parent="1" vertex="1">
          <mxGeometry x="200" y="640" width="80" height="80" as="geometry" />
        </mxCell>
        <mxCell id="3eTjlPZ8RlrqOrfZ9lEg-1" value="USB-A" style="endArrow=classic;html=1;exitX=0.5;exitY=0;exitDx=0;exitDy=0;entryX=0;entryY=0.5;entryDx=0;entryDy=0;" edge="1" parent="1" source="oZSlwUcGQeWg7HEZ2WSq-12" target="oZSlwUcGQeWg7HEZ2WSq-1">
          <mxGeometry width="50" height="50" relative="1" as="geometry">
            <mxPoint x="35" y="440" as="sourcePoint" />
            <mxPoint x="85" y="390" as="targetPoint" />
            <Array as="points">
              <mxPoint x="60" y="400" />
            </Array>
          </mxGeometry>
        </mxCell>
        <mxCell id="3eTjlPZ8RlrqOrfZ9lEg-2" value="USB-A" style="endArrow=classic;html=1;exitX=0.5;exitY=0;exitDx=0;exitDy=0;entryX=0.333;entryY=1.017;entryDx=0;entryDy=0;entryPerimeter=0;" edge="1" parent="1" source="oZSlwUcGQeWg7HEZ2WSq-13" target="oZSlwUcGQeWg7HEZ2WSq-1">
          <mxGeometry width="50" height="50" relative="1" as="geometry">
            <mxPoint x="390" y="610" as="sourcePoint" />
            <mxPoint x="440" y="560" as="targetPoint" />
          </mxGeometry>
        </mxCell>
        <mxCell id="3eTjlPZ8RlrqOrfZ9lEg-3" value="USB-A" style="endArrow=classic;html=1;exitX=0.5;exitY=0;exitDx=0;exitDy=0;entryX=1;entryY=0.5;entryDx=0;entryDy=0;" edge="1" parent="1" source="oZSlwUcGQeWg7HEZ2WSq-14" target="oZSlwUcGQeWg7HEZ2WSq-1">
          <mxGeometry width="50" height="50" relative="1" as="geometry">
            <mxPoint x="390" y="610" as="sourcePoint" />
            <mxPoint x="440" y="560" as="targetPoint" />
            <Array as="points">
              <mxPoint x="260" y="400" />
            </Array>
          </mxGeometry>
        </mxCell>
        <mxCell id="3eTjlPZ8RlrqOrfZ9lEg-4" value="USB-A" style="endArrow=classic;html=1;entryX=0.5;entryY=0;entryDx=0;entryDy=0;" edge="1" parent="1" target="oZSlwUcGQeWg7HEZ2WSq-15">
          <mxGeometry width="50" height="50" relative="1" as="geometry">
            <mxPoint x="240" y="580" as="sourcePoint" />
            <mxPoint x="240" y="580" as="targetPoint" />
          </mxGeometry>
        </mxCell>
        <mxCell id="3eTjlPZ8RlrqOrfZ9lEg-5" value="Teams" style="ellipse;whiteSpace=wrap;html=1;aspect=fixed;" vertex="1" parent="1">
          <mxGeometry x="570" y="360" width="80" height="80" as="geometry" />
        </mxCell>
        <mxCell id="3eTjlPZ8RlrqOrfZ9lEg-6" value="" style="endArrow=classic;startArrow=classic;html=1;entryX=0;entryY=0.5;entryDx=0;entryDy=0;exitX=1;exitY=0.5;exitDx=0;exitDy=0;" edge="1" parent="1" source="oZSlwUcGQeWg7HEZ2WSq-3" target="3eTjlPZ8RlrqOrfZ9lEg-5">
          <mxGeometry width="50" height="50" relative="1" as="geometry">
            <mxPoint x="390" y="610" as="sourcePoint" />
            <mxPoint x="440" y="560" as="targetPoint" />
          </mxGeometry>
        </mxCell>
        <mxCell id="3eTjlPZ8RlrqOrfZ9lEg-7" value="" style="endArrow=classic;startArrow=classic;html=1;exitX=1;exitY=0.5;exitDx=0;exitDy=0;entryX=0;entryY=0.5;entryDx=0;entryDy=0;" edge="1" parent="1" source="3eTjlPZ8RlrqOrfZ9lEg-5" target="3eTjlPZ8RlrqOrfZ9lEg-9">
          <mxGeometry width="50" height="50" relative="1" as="geometry">
            <mxPoint x="660" y="400" as="sourcePoint" />
            <mxPoint x="710" y="400" as="targetPoint" />
          </mxGeometry>
        </mxCell>
        <mxCell id="3eTjlPZ8RlrqOrfZ9lEg-9" value="Remote presenter" style="shape=hexagon;perimeter=hexagonPerimeter2;whiteSpace=wrap;html=1;fixedSize=1;" vertex="1" parent="1">
          <mxGeometry x="710" y="360" width="93" height="80" as="geometry" />
        </mxCell>
      </root>
    </mxGraphModel>
  </diagram>
</mxfile>
